<svg xmlns="http://www.w3.org/2000/svg" viewBox="0 0 320 180" width="320" height="180" aria-hidden="true">
<rect width="320" height="180" fill="#f4d35e"/><circle cx="160" cy="100" r="62" fill="#f9c74f" stroke="#f77f00" stroke-width="5"/><path d="M128 84 q10 -12 20 0 M172 84 q10 -12 20 0" stroke="#22333b" stroke-width="5" fill="none" stroke-linecap="round"/>
<path d="M118 108 q42 50 84 0Z" fill="#22333b"/><path d="M130 118 q30 22 60 0Z" fill="#e63946"/><polygon points="160,38 130,72 190,72" fill="#7b2cbf"/><circle cx="160" cy="36" r="8" fill="#ff8fab"/><circle cx="140" cy="62" r="4" fill="#ffffff"/><circle cx="175" cy="52" r="4" fill="#ffffff"/><rect x="40" y="40" width="10" height="26" rx="3" fill="#e63946" transform="rotate(-20 45 53)"/><rect x="270" y="110" width="10" height="26" rx="3" fill="#3a86ff" transform="rotate(30 275 123)"/><rect x="60" y="120" width="10" height="26" rx="3" fill="#2a9d8f" transform="rotate(15 65 133)"/>
</svg>
